<?xml version="1.0" encoding="utf-8"?>
<!-- Generator: Adobe Illustrator 16.0.0, SVG Export Plug-In . SVG Version: 6.00 Build 0)  -->
<!DOCTYPE svg PUBLIC "-//W3C//DTD SVG 1.1//EN" "http://www.w3.org/Graphics/SVG/1.1/DTD/svg11.dtd" [
	<!ENTITY ns_extend "http://ns.adobe.com/Extensibility/1.0/">
	<!ENTITY ns_ai "http://ns.adobe.com/AdobeIllustrator/10.0/">
	<!ENTITY ns_graphs "http://ns.adobe.com/Graphs/1.0/">
	<!ENTITY ns_vars "http://ns.adobe.com/Variables/1.0/">
	<!ENTITY ns_imrep "http://ns.adobe.com/ImageReplacement/1.0/">
	<!ENTITY ns_sfw "http://ns.adobe.com/SaveForWeb/1.0/">
	<!ENTITY ns_custom "http://ns.adobe.com/GenericCustomNamespace/1.0/">
	<!ENTITY ns_adobe_xpath "http://ns.adobe.com/XPath/1.0/">
]>
<svg version="1.1" id="Layer_1" xmlns:x="&ns_extend;" xmlns:i="&ns_ai;" xmlns:graph="&ns_graphs;"
	 xmlns="http://www.w3.org/2000/svg" xmlns:xlink="http://www.w3.org/1999/xlink" x="0px" y="0px" width="196.056px"
	 height="66.649px" viewBox="0 0 196.056 66.649" enable-background="new 0 0 196.056 66.649" xml:space="preserve">
<metadata>
	<sfw  xmlns="&ns_sfw;">
		<slices></slices>
		<sliceSourceBounds  height="62.285" width="183.217" x="92.892" y="-265.555" bottomLeftOrigin="true"></sliceSourceBounds>
		<optimizationSettings>
			<targetSettings  fileFormat="PNG24Format" targetSettingsID="0">
				<PNG24Format  transparency="true" filtered="false" matteColor="#FFFFFF" noMatteColor="false" interlaced="false">
					</PNG24Format>
			</targetSettings>
		</optimizationSettings>
	</sfw>
</metadata>
<g>
	<path fill="#068643" d="M19.781,29.937c0.179-10.604,0.521-21.412,0.906-27.571H6.42c0.85,10.704,0.291,53.375,0.025,62.283h14.419
		c-0.366-4.172-1.292-16.521-1.124-29.786l16.048,26.956c1.068,1.67,3.07,2.83,4.958,2.83h13.917
		c-6.044-6.02-22.266-32.794-22.266-32.794S49.59,6.705,54.664,2.366H40.747c-1.889,0-3.85,1.116-4.958,2.83L19.781,29.937z"/>
	<path fill="#068643" d="M68.882,34.335l2.39-4.794c0.472-0.941,1.4-1.777,3.017-1.792c1.18-0.007,12.825-0.007,12.825-0.007
		c-0.96,2.027-3.231,6.47-3.231,6.47c-0.944,1.417-2.36,1.648-3.542,1.648H68.842c-0.088,7.48-0.1,13.457-0.022,18.875
		c0.071,1.482,0.839,2.597,2.415,2.597c1.174,0,20.57-0.017,20.57-0.017c-0.704,1.181-3.763,7.333-3.763,7.333H55.395
		c0.708-8.734,0.738-52.376-0.204-62.283H87.54c0,0,2.643,5.987,3.113,6.697c-1.15,0-14.18-0.056-19.325-0.106
		c-0.971,0-2.379,0.836-2.379,2.68L68.882,34.335z"/>
	<path fill="#068643" d="M122.004,57.487c0,0-12.891-0.021-13.895-0.021c-1.485,0-2.167-1.055-2.24-2.6
		c-0.071-5.419-0.106-11.526-0.021-19.004c0,0,0.105-10.468,0.375-19.764c0.276-9.512,0.542-13.733,0.542-13.733H92.201
		c0.941,9.909,1.083,53.551,0.38,62.283h25.806C118.387,64.647,121.298,58.667,122.004,57.487"/>
	<path fill="#068643" d="M152.242,57.487c0,0-12.89-0.021-13.894-0.021c-1.486,0-2.166-1.055-2.239-2.6
		c-0.072-5.419-0.106-11.526-0.022-19.004c0,0,0.106-10.468,0.376-19.764c0.274-9.512,0.542-13.733,0.542-13.733H122.44
		c0.941,9.909,1.083,53.551,0.379,62.283h25.808C148.626,64.647,151.537,58.667,152.242,57.487"/>
	<path fill="#068643" d="M162.84,36.409c-4.821,12.178-9.156,24.136-11.722,28.24h10.619c3.775,0,4.783-2.339,5.506-4.237
		c5.68-14.75,19.648-53.82,22.393-58.046h-10.686c-4.246,0-5.247,3.273-6.376,6.283c-2.424,6.322-5.175,15.328-8.688,24.296
		c-2.28-6.809-4.197-14.161-7.125-24.296c-0.865-3.01-1.604-6.301-6.82-6.283c-4.247,0.014-10.38,0-10.38,0
		c3.277,4.491,5.384,15.637,11.062,30.385c0.704,1.72,1.554,3.617,5.33,3.617L162.84,36.409z"/>
	<path fill="#068643" d="M183.791,59.519h0.88c0.753,0,1.57-0.039,1.57-0.943c0-0.701-0.64-0.907-1.224-0.907h-1.227V59.519z
		 M183.791,62.529h-0.688v-5.471h2.104c1.237,0,1.724,0.536,1.724,1.518c0,1.006-0.638,1.428-1.378,1.556l1.631,2.397h-0.778
		l-1.63-2.397h-0.984V62.529z M184.825,63.87c2.247,0,4.057-1.813,4.057-4.056c0-2.246-1.81-4.056-4.057-4.056
		s-4.056,1.81-4.056,4.056C180.769,62.057,182.578,63.87,184.825,63.87 M184.825,55.068c2.614,0,4.747,2.131,4.747,4.746
		c0,2.614-2.132,4.745-4.747,4.745c-2.615,0-4.746-2.13-4.746-4.745C180.079,57.199,182.21,55.068,184.825,55.068"/>
</g>
</svg>
